<svg width="338" height="121" viewBox="0 0 338 121" fill="none" xmlns="http://www.w3.org/2000/svg">
<path d="M2 29C34.7861 20.4056 67.3831 11.1996 100 2" stroke="#8D8D8D" stroke-width="3" stroke-linecap="round"/>
<path d="M41 22C35.9905 38.5869 31.3209 55.2867 26 71.7778C24.0972 77.6752 22.5931 83.2093 19 88" stroke="#8D8D8D" stroke-width="3" stroke-linecap="round"/>
<path d="M68 83C65.2542 79.862 61.8549 75.7195 62.1111 71.2778C62.3886 66.4686 68.1833 64.4045 72.2222 65.6667C88.7941 70.8454 68.5673 85.0481 60 86" stroke="#8D8D8D" stroke-width="3" stroke-linecap="round"/>
<path d="M232 72.6966C229.254 69.5586 225.855 65.4161 226.111 60.9744C226.389 56.1652 232.183 54.1011 236.222 55.3633C252.794 60.542 232.567 74.7447 224 75.6966" stroke="#8D8D8D" stroke-width="3" stroke-linecap="round"/>
<path d="M80 81C80.931 74.0174 87.62 64.9757 90.8333 76.2222C91.2764 77.773 94.1359 71.5714 95.8889 70.4445C100.076 67.7526 99.8332 81.6649 100 84" stroke="#8D8D8D" stroke-width="3" stroke-linecap="round"/>
<path d="M152 61C146.502 61.8248 138.908 63.0152 135.111 67.4444C131.751 71.3649 139.106 70.0424 141.556 70.2222C146.665 70.5972 154.538 70.6145 145.167 73C139.917 74.3362 133.763 74.0946 129 76" stroke="#8D8D8D" stroke-width="3" stroke-linecap="round"/>
<path d="M206 21.2041C205.681 19.8307 203.839 19.9295 202.777 20.0893C191.056 21.8526 178.473 32.9621 174.981 45.1104C169.843 62.9836 185.837 76.5316 200.821 73.5998" stroke="#8D8D8D" stroke-width="3" stroke-linecap="round"/>
<path d="M214 71C214.379 69.0583 214.197 65.9013 216 65" stroke="#8D8D8D" stroke-width="3" stroke-linecap="round"/>
<path d="M217 55C217.189 53.4906 218.942 53.7939 216 56" stroke="#8D8D8D" stroke-width="3" stroke-linecap="round"/>
<path d="M250 67C246.464 67.442 253.373 56.8172 254 57.4445C256.644 60.0887 259.267 67.1627 263.333 67.8889C263.947 67.9984 263.914 59.0863 265 58" stroke="#8D8D8D" stroke-width="3" stroke-linecap="round"/>
<path d="M279 68C271.725 65.8602 267.161 57 277.889 57C285.343 57 275.419 63.1936 273 64" stroke="#8D8D8D" stroke-width="3" stroke-linecap="round"/>
<path d="M298 25C291.921 39.9635 288.605 56.4697 282 71" stroke="#8D8D8D" stroke-width="3" stroke-linecap="round"/>
<path d="M292 50C294.101 43.6975 303.909 38.6367 309 35" stroke="#8D8D8D" stroke-width="3" stroke-linecap="round"/>
<path d="M288 50C294.487 50 299.21 44.4062 299.111 54.4445C299.039 61.8182 294.989 66.4365 302.222 71.7222C309.993 77.4009 318.354 67.7778 324 63" stroke="#8D8D8D" stroke-width="3" stroke-linecap="round"/>
<path d="M113.122 66.1428C111.03 70.6264 108.873 75.0483 106.626 79.4446" stroke="#8D8D8D" stroke-width="3" stroke-linecap="round"/>
<path d="M114.36 64.9054C117.998 72.9986 121.525 81.1289 124.878 89.3435" stroke="#8D8D8D" stroke-width="3" stroke-linecap="round"/>
<path d="M109.41 76.6605C112.868 75.969 116.429 75.7999 119.928 75.4231" stroke="#8D8D8D" stroke-width="3" stroke-linecap="round"/>
<path d="M45.995 45.1075C46.5508 54.5569 42.7846 64.6823 38.8801 73.2233C37.6052 76.0121 36.9616 78.9129 36.0273 81.8162C35.8124 82.4838 35.168 85.1858 35.168 83.1567" stroke="#8D8D8D" stroke-width="3" stroke-linecap="round"/>
<path d="M39.4988 69.5456C41.303 68.1709 43.1204 66.3073 45.4107 65.8335C46.3433 65.6405 48.0751 65.1885 48.9853 65.7303C50.6461 66.7189 50.6351 68.7019 50.6351 70.4049C50.6351 74.1961 50.018 79.4433 46.923 81.9193" stroke="#8D8D8D" stroke-width="3" stroke-linecap="round"/>
<path d="M33 93.1162C129.897 87.1938 226.933 82.2561 324.029 78.7023C330.258 78.4743 348.266 76.9659 322.643 79.2341C251.302 85.5495 180.16 93.4639 109.12 101.493C95.3152 103.053 81.4261 104.252 67.7322 106.307C41.4015 110.258 80.0678 111.015 81.4587 111.094C140.977 114.441 200.826 115.95 260.458 117.583C281.829 118.168 303.521 118.154 324.931 118.965C326.985 119.043 320.817 118.965 318.761 118.965" stroke="#8D8D8D" stroke-width="3" stroke-linecap="round"/>
</svg>
